<svg width="300" height="90" viewBox="0 0 300 90" fill="none" xmlns="http://www.w3.org/2000/svg">
<g filter="url(#filter0_i)">
<rect width="300" height="90" rx="10" fill="url(#paint0_linear)"/>
</g>
<g filter="url(#filter1_d)">
<path d="M29.6754 36.4V56H39.2234C43.3394 56 47.2034 54.852 47.2034 50.4C47.2034 47.88 45.9154 46.284 43.6194 45.584C45.6354 44.8 46.4194 43.372 46.4194 41.356C46.4194 37.94 43.8994 36.4 39.4754 36.4H29.6754ZM40.7634 49.644C40.7634 50.68 40.1194 51.24 38.8874 51.24H36.1434V48.048H38.8874C40.1194 48.048 40.7634 48.608 40.7634 49.644ZM40.2034 42.616C40.2034 43.4 39.6714 44.072 38.5794 44.072L36.1434 44.044V41.16H38.5794C39.6714 41.16 40.2034 41.804 40.2034 42.616ZM57.8215 56C62.3295 56 66.2775 54.488 66.2775 49C66.2775 43.484 62.3295 42 57.8215 42H55.7215V36.4H49.2535V56H57.8215ZM55.7215 47.32H57.7655C58.9135 47.32 59.8935 47.796 59.8935 49C59.8935 50.204 58.9135 50.68 57.7655 50.68H55.7215V47.32ZM73.9495 56V36.4H67.4815V56H73.9495ZM83.3934 43.428V41.58H92.4094V36.4H76.9254V56H86.5294C90.3374 56 94.0614 54.796 94.0614 49.728C94.0614 44.632 90.3374 43.428 86.5294 43.428H83.3934ZM83.3934 51.296V48.132H85.7174C86.8374 48.132 87.6494 48.468 87.6494 49.728C87.6494 50.988 86.8374 51.296 85.7174 51.296H83.3934ZM96.0387 36.4V56H102.507V50.876H104.607C109.591 50.876 113.399 49.14 113.399 43.652C113.399 38.136 109.591 36.4 104.607 36.4H96.0387ZM106.987 43.652C106.987 44.996 106.035 45.556 104.551 45.556H102.507V41.72H104.551C106.035 41.72 106.987 42.28 106.987 43.652ZM118.577 56L119.445 53.396H126.221L127.061 56H133.613L126.305 36.4H119.361L112.025 56H118.577ZM122.301 44.548C122.497 43.82 122.693 43.036 122.833 42.028C122.973 43.036 123.169 43.82 123.393 44.548L124.765 48.72H120.929L122.301 44.548ZM131.449 36.4V42.056H136.713V56H143.153V42.056H148.417V36.4H131.449ZM158.802 56C163.31 56 167.258 54.488 167.258 49C167.258 43.484 163.31 42 158.802 42H156.702V36.4H150.234V56H158.802ZM156.702 47.32H158.746C159.894 47.32 160.874 47.796 160.874 49C160.874 50.204 159.894 50.68 158.746 50.68H156.702V47.32ZM191.181 56V36.4H184.713V44.296C184.041 44.604 183.229 44.772 182.473 44.772C181.185 44.772 180.093 44.268 180.093 42.952V36.4H173.625V43.736C173.625 48.244 176.565 50.4 180.737 50.4C182.109 50.4 183.481 50.176 184.713 49.784V56H191.181ZM194.148 36.4V56H209.156V50.848H200.616V48.524H207.98V43.764H200.616V41.496H208.988V36.4H194.148ZM217.082 56L220.33 50.484L223.55 56H231.082L224.362 45.892L230.746 36.4H223.214L220.33 41.468L217.418 36.4H209.886L216.27 45.892L209.55 56H217.082ZM230.031 46.2C230.031 51.828 233.587 56.448 240.643 56.448C247.699 56.448 251.255 51.828 251.255 46.2C251.255 40.572 247.699 35.952 240.643 35.952C233.587 35.952 230.031 40.572 230.031 46.2ZM244.619 46.2C244.619 48.888 243.163 50.596 240.643 50.596C238.123 50.596 236.667 48.888 236.667 46.2C236.667 43.512 238.123 41.804 240.643 41.804C243.163 41.804 244.619 43.512 244.619 46.2ZM256.239 36.4C255.903 41.524 256.099 48.972 253.551 50.176C252.991 50.512 252.291 50.568 251.591 50.344V55.944C252.515 56.224 253.495 56.364 254.531 56.364C260.467 56.364 261.615 49.112 262.147 42.056H264.863V56H271.331V36.4H256.239Z" fill="white"/>
</g>
<defs>
<filter id="filter0_i" x="0" y="0" width="300" height="90" filterUnits="userSpaceOnUse" color-interpolation-filters="sRGB">
<feFlood flood-opacity="0" result="BackgroundImageFix"/>
<feBlend mode="normal" in="SourceGraphic" in2="BackgroundImageFix" result="shape"/>
<feColorMatrix in="SourceAlpha" type="matrix" values="0 0 0 0 0 0 0 0 0 0 0 0 0 0 0 0 0 0 127 0" result="hardAlpha"/>
<feOffset/>
<feGaussianBlur stdDeviation="5"/>
<feComposite in2="hardAlpha" operator="arithmetic" k2="-1" k3="1"/>
<feColorMatrix type="matrix" values="0 0 0 0 1 0 0 0 0 1 0 0 0 0 1 0 0 0 1 0"/>
<feBlend mode="normal" in2="shape" result="effect1_innerShadow"/>
</filter>
<filter id="filter1_d" x="25.6758" y="31.9521" width="249.656" height="28.496" filterUnits="userSpaceOnUse" color-interpolation-filters="sRGB">
<feFlood flood-opacity="0" result="BackgroundImageFix"/>
<feColorMatrix in="SourceAlpha" type="matrix" values="0 0 0 0 0 0 0 0 0 0 0 0 0 0 0 0 0 0 127 0"/>
<feOffset/>
<feGaussianBlur stdDeviation="2"/>
<feColorMatrix type="matrix" values="0 0 0 0 0.433333 0 0 0 0 0 0 0 0 0 0 0 0 0 0.2 0"/>
<feBlend mode="normal" in2="BackgroundImageFix" result="effect1_dropShadow"/>
<feBlend mode="normal" in="SourceGraphic" in2="effect1_dropShadow" result="shape"/>
</filter>
<linearGradient id="paint0_linear" x1="150" y1="0" x2="150" y2="90" gradientUnits="userSpaceOnUse">
<stop stop-color="#FF378B"/>
<stop offset="0.0677083" stop-color="#FF649C"/>
<stop offset="0.140625" stop-color="#FE75C7"/>
<stop offset="0.25" stop-color="#FF6D87"/>
<stop offset="0.651042" stop-color="#FF3B99"/>
<stop offset="0.958333" stop-color="#FB8DCF"/>
<stop offset="1" stop-color="#FF41B3"/>
</linearGradient>
</defs>
</svg>
