<svg width="300" height="90" viewBox="0 0 300 90" fill="none" xmlns="http://www.w3.org/2000/svg">
<g filter="url(#filter0_i)">
<rect width="300" height="90" rx="10" fill="url(#paint0_linear)"/>
</g>
<g filter="url(#filter1_d)">
<path d="M77.1447 39V25.056H82.6327V39H89.0727V19.4H70.7047V39H77.1447ZM91.2208 29.2C91.2208 34.828 94.7768 39.448 101.833 39.448C108.889 39.448 112.445 34.828 112.445 29.2C112.445 23.572 108.889 18.952 101.833 18.952C94.7768 18.952 91.2208 23.572 91.2208 29.2ZM105.809 29.2C105.809 31.888 104.353 33.596 101.833 33.596C99.3128 33.596 97.8568 31.888 97.8568 29.2C97.8568 26.512 99.3128 24.804 101.833 24.804C104.353 24.804 105.809 26.512 105.809 29.2ZM117.429 19.4C117.093 24.524 117.289 31.972 114.741 33.176C114.181 33.512 113.481 33.568 112.781 33.344V38.944C113.705 39.224 114.685 39.364 115.721 39.364C121.657 39.364 122.805 32.112 123.337 25.056H126.053V39H132.521V19.4H117.429ZM147.046 34.492L154.102 19.4H147.214L144.33 27.1L140.746 19.4H133.83L141.278 32.308L140.97 32.924C140.606 33.764 139.766 34.044 138.702 34.044C137.946 34.044 137.106 33.904 136.406 33.652V38.86C137.694 39.224 138.87 39.448 139.962 39.448C143.21 39.448 145.366 38.132 147.046 34.492ZM172.355 39V19.4H165.887V27.296C165.215 27.604 164.403 27.772 163.647 27.772C162.359 27.772 161.267 27.268 161.267 25.952V19.4H154.799V26.736C154.799 31.244 157.739 33.4 161.911 33.4C163.283 33.4 164.655 33.176 165.887 32.784V39H172.355ZM193.718 39V19.4H188.258L181.622 28.612C181.762 27.436 181.79 26.316 181.79 25.252V19.4H175.322V39H180.782L187.418 29.816C187.278 30.992 187.25 32.084 187.25 33.12V39H193.718ZM195.529 19.4V25.056H200.793V39H207.233V25.056H212.497V19.4H195.529ZM222.882 39C227.39 39 231.338 37.488 231.338 32C231.338 26.484 227.39 25 222.882 25H220.782V19.4H214.314V39H222.882ZM220.782 30.32H222.826C223.974 30.32 224.954 30.796 224.954 32C224.954 33.204 223.974 33.68 222.826 33.68H220.782V30.32ZM42.7326 69V55.056H48.2206V69H54.6606V49.4H36.2926V69H42.7326ZM57.6207 49.4V69H64.0887V63.876H66.1887C71.1727 63.876 74.9807 62.14 74.9807 56.652C74.9807 51.136 71.1727 49.4 66.1887 49.4H57.6207ZM68.5687 56.652C68.5687 57.996 67.6167 58.556 66.1327 58.556H64.0887V54.72H66.1327C67.6167 54.72 68.5687 55.28 68.5687 56.652ZM76.9801 49.4V69H91.9881V63.848H83.4481V61.524H90.8121V56.764H83.4481V54.496H91.8201V49.4H76.9801ZM99.1581 72.808V69H110.33V72.808H116.07V63.568H113.522V49.4H98.6261C98.6261 54.188 98.2061 59.06 95.7421 63.568H93.4181V72.808H99.1581ZM104.338 54.888H107.138V63.568H102.378C103.638 61.104 104.058 58.276 104.338 54.888ZM121.407 49.4C121.071 54.524 121.267 61.972 118.719 63.176C118.159 63.512 117.459 63.568 116.759 63.344V68.944C117.683 69.224 118.663 69.364 119.699 69.364C125.635 69.364 126.783 62.112 127.315 55.056H130.031V69H136.499V49.4H121.407ZM138.649 59.2C138.649 64.828 142.205 69.448 149.261 69.448C156.317 69.448 159.873 64.828 159.873 59.2C159.873 53.572 156.317 48.952 149.261 48.952C142.205 48.952 138.649 53.572 138.649 59.2ZM153.237 59.2C153.237 61.888 151.781 63.596 149.261 63.596C146.741 63.596 145.285 61.888 145.285 59.2C145.285 56.512 146.741 54.804 149.261 54.804C151.781 54.804 153.237 56.512 153.237 59.2ZM166.523 69L169.967 62H170.947V69H177.415V62H178.367L181.839 69H188.951L183.715 59.116L188.811 49.4H181.699L178.507 56.344H177.415V49.4H170.947V56.344H169.855L166.635 49.4H159.523L164.647 59.116L159.411 69H166.523ZM190.293 49.4V69H205.301V63.848H196.761V61.524H204.125V56.764H196.761V54.496H205.133V49.4H190.293ZM219.499 49.4V56.372H214.179V49.4H207.711V69H214.179V62.028H219.499V69H225.939V49.4H219.499ZM247.298 69V49.4H241.838L235.202 58.612C235.342 57.436 235.37 56.316 235.37 55.252V49.4H228.902V69H234.362L240.998 59.816C240.858 60.992 240.83 62.084 240.83 63.12V69H247.298ZM250.257 49.4V69H265.265V63.848H256.725V61.524H264.089V56.764H256.725V54.496H265.097V49.4H250.257Z" fill="white"/>
</g>
<defs>
<filter id="filter0_i" x="0" y="0" width="300" height="90" filterUnits="userSpaceOnUse" color-interpolation-filters="sRGB">
<feFlood flood-opacity="0" result="BackgroundImageFix"/>
<feBlend mode="normal" in="SourceGraphic" in2="BackgroundImageFix" result="shape"/>
<feColorMatrix in="SourceAlpha" type="matrix" values="0 0 0 0 0 0 0 0 0 0 0 0 0 0 0 0 0 0 127 0" result="hardAlpha"/>
<feOffset/>
<feGaussianBlur stdDeviation="5"/>
<feComposite in2="hardAlpha" operator="arithmetic" k2="-1" k3="1"/>
<feColorMatrix type="matrix" values="0 0 0 0 1 0 0 0 0 1 0 0 0 0 1 0 0 0 1 0"/>
<feBlend mode="normal" in2="shape" result="effect1_innerShadow"/>
</filter>
<filter id="filter1_d" x="32.293" y="14.9521" width="236.973" height="61.856" filterUnits="userSpaceOnUse" color-interpolation-filters="sRGB">
<feFlood flood-opacity="0" result="BackgroundImageFix"/>
<feColorMatrix in="SourceAlpha" type="matrix" values="0 0 0 0 0 0 0 0 0 0 0 0 0 0 0 0 0 0 127 0"/>
<feOffset/>
<feGaussianBlur stdDeviation="2"/>
<feColorMatrix type="matrix" values="0 0 0 0 0.433333 0 0 0 0 0 0 0 0 0 0 0 0 0 0.2 0"/>
<feBlend mode="normal" in2="BackgroundImageFix" result="effect1_dropShadow"/>
<feBlend mode="normal" in="SourceGraphic" in2="effect1_dropShadow" result="shape"/>
</filter>
<linearGradient id="paint0_linear" x1="150" y1="0" x2="150" y2="90" gradientUnits="userSpaceOnUse">
<stop stop-color="#FD6C2F"/>
<stop offset="0.0208333" stop-color="#FF7A41"/>
<stop offset="0.25" stop-color="#FCB852"/>
<stop offset="0.651042" stop-color="#FF8E3D"/>
<stop offset="0.958333" stop-color="#FFD541"/>
<stop offset="1" stop-color="#FF7A41"/>
</linearGradient>
</defs>
</svg>
