<svg width="15" height="20" viewBox="0 0 15 20" fill="currentColor" xmlns="http://www.w3.org/2000/svg"><path fill-rule="evenodd" clip-rule="evenodd" d="M14.011 10.633l-5.414 9.081A.585.585 0 0 1 8.1 20h-.004a.582.582 0 0 1-.496-.278l-5.557-8.994A7.035 7.035 0 0 1 .998 7.031C.998 3.154 4.14 0 7.998 0c3.86 0 7.001 3.154 7.001 7.031a7.047 7.047 0 0 1-.988 3.602zM7.998 1.164c-3.215 0-5.84 2.636-5.84 5.867a5.87 5.87 0 0 0 .877 3.08l5.051 8.177 4.924-8.257a5.877 5.877 0 0 0 .826-3c0-3.231-2.621-5.867-5.838-5.867zm0 9.382c-1.955 0-3.499-1.589-3.499-3.515 0-1.939 1.57-3.516 3.499-3.516 1.931 0 3.5 1.577 3.5 3.516 0 1.905-1.519 3.515-3.5 3.515zm0-5.867a2.354 2.354 0 0 0-2.34 2.352 2.348 2.348 0 0 0 2.34 2.351c1.314 0 2.337-1.075 2.337-2.351a2.35 2.35 0 0 0-2.337-2.352z" fill="#F80"/></svg>