<svg width="16" height="20" viewBox="0 0 16 20" fill="currentColor" xmlns="http://www.w3.org/2000/svg"><path fill-rule="evenodd" clip-rule="evenodd" d="M13.717 19.987a.73.73 0 0 1-.094-.006c-4.23-.636-8.083-3.224-10.572-7.103C.563 9-.158 4.462 1.076.428a.609.609 0 0 1 .619-.427l3.713.214c.31.018.556.26.574.564l.253 4.39c.098.965-.841 1.804-1.353 2.185.22 2.18 2.115 5.134 4.009 6.25.571-.291 1.752-.764 2.635-.249l3.9 2.101c.272.146.389.47.271.753l-1.418 3.406a.608.608 0 0 1-.562.372zM2.113 1.226c-.946 3.587-.239 7.573 1.968 11.012s5.56 5.78 9.256 6.478l1.027-2.466-3.44-1.854c-.376-.217-1.237.112-1.704.401a.621.621 0 0 1-.597.029C6.18 13.622 3.714 9.781 3.645 7.071a.603.603 0 0 1 .283-.521c.482-.303 1.132-.918 1.095-1.287l-.226-3.882-2.684-.155z" fill="#F80"/></svg>