<svg width="44" height="38" viewBox="0 0 44 38" fill="none" xmlns="http://www.w3.org/2000/svg">
<path d="M18.2439 27.4109C18.0203 28.8407 17.6626 30.2034 17.1707 31.4991C16.6789 32.7501 16.0752 33.8671 15.3598 34.8501C14.6443 35.833 13.8618 36.6149 13.0122 37.1958C12.2073 37.7319 11.3801 38 10.5305 38C8.92073 38 7.26626 37.7543 5.56707 37.2628C3.9126 36.7713 2.61585 35.9447 1.67683 34.7831C1.40854 34.381 1.14024 33.9118 0.871951 33.3757C0.603659 32.8395 0.402439 32.1917 0.268293 31.4321C0.134146 30.6725 0.0447154 29.7566 0 28.6843C0 27.612 0.111789 26.361 0.335366 24.9312C0.603659 22.876 1.02846 20.8877 1.60976 18.9665C2.19106 17.0453 3.08537 15.0794 4.29268 13.0688C5.54472 11.0582 7.17683 9.00294 9.18902 6.903C11.2459 4.75838 13.8618 2.45738 17.0366 0L20.5244 4.89242C16.5894 7.84127 13.7724 10.455 12.0732 12.7337C10.4187 14.9677 9.47967 16.9336 9.2561 18.6314C9.16667 19.4356 9.4126 20.0611 9.9939 20.5079C10.5752 20.9547 11.3354 21.3122 12.2744 21.5802C14.2419 22.0717 15.7622 22.8536 16.8354 23.9259C17.9533 24.9536 18.4228 26.1152 18.2439 27.4109ZM41.7195 27.4109C41.4959 28.8407 41.1382 30.2034 40.6463 31.4991C40.1545 32.7501 39.5508 33.8671 38.8354 34.8501C38.1199 35.833 37.3374 36.6149 36.4878 37.1958C35.6829 37.7319 34.8557 38 34.0061 38C32.3963 38 30.7419 37.7543 29.0427 37.2628C27.3882 36.7713 26.0915 35.9447 25.1524 34.7831C24.8841 34.381 24.6159 33.9118 24.3476 33.3757C24.0793 32.8395 23.878 32.1917 23.7439 31.4321C23.6098 30.6725 23.5203 29.7566 23.4756 28.6843C23.4756 27.612 23.5874 26.361 23.811 24.9312C24.0793 22.876 24.5041 20.8877 25.0854 18.9665C25.6667 17.0453 26.561 15.0794 27.7683 13.0688C29.0203 11.0582 30.6524 9.00294 32.6646 6.903C34.7215 4.75838 37.3374 2.45738 40.5122 0L44 4.89242C40.065 7.84127 37.248 10.455 35.5488 12.7337C33.8943 14.9677 32.9553 16.9336 32.7317 18.6314C32.6423 19.4356 32.8882 20.0611 33.4695 20.5079C34.0508 20.9547 34.811 21.3122 35.75 21.5802C37.7175 22.0717 39.2378 22.8536 40.311 23.9259C41.4289 24.9536 41.8984 26.1152 41.7195 27.4109Z" fill="#E15182"/>
</svg>
